<svg width="1029" height="741" viewBox="0 0 1029 741" fill="none" xmlns="http://www.w3.org/2000/svg">
<g opacity="0.45">
<path opacity="0.45" d="M450.768 258.968C450.771 259.448 450.805 259.928 450.87 260.405C450.805 259.928 450.771 259.448 450.768 258.968Z" fill="#5D21D2"/>
<path opacity="0.45" d="M579.684 228.081C579.703 228.209 579.728 228.336 579.743 228.465C579.728 228.335 579.703 228.209 579.684 228.081Z" fill="#5D21D2"/>
<path opacity="0.45" d="M579.416 226.807C579.452 226.94 579.487 227.074 579.519 227.21C579.487 227.074 579.453 226.941 579.416 226.807Z" fill="#5D21D2"/>
<path opacity="0.45" d="M579.55 261.385C579.501 261.605 579.444 261.823 579.382 262.038C579.444 261.823 579.501 261.606 579.55 261.385Z" fill="#5D21D2"/>
<path opacity="0.45" d="M579.73 260.33C579.701 260.564 579.667 260.797 579.624 261.027C579.667 260.797 579.701 260.565 579.73 260.33Z" fill="#5D21D2"/>
<path opacity="0.45" d="M456.729 268.784C455.871 268.335 455.075 267.775 454.361 267.119C455.074 267.775 455.871 268.335 456.729 268.784V268.784Z" fill="#5D21D2"/>
<path opacity="0.45" d="M454.275 267.04C453.939 266.726 453.624 266.391 453.33 266.038C453.624 266.391 453.939 266.726 454.275 267.04Z" fill="#5D21D2"/>
<path opacity="0.45" d="M644.514 478.435C644.384 477.997 644.227 477.567 644.043 477.149C644.227 477.567 644.384 477.997 644.514 478.435V478.435Z" fill="#5D21D2"/>
<path opacity="0.45" d="M639.007 471.768C639.444 471.996 639.866 472.253 640.269 472.537C639.866 472.253 639.444 471.996 639.007 471.768V471.768Z" fill="#5D21D2"/>
<path opacity="0.45" d="M641.485 473.533C642.161 474.17 642.754 474.888 643.252 475.672C642.755 474.888 642.161 474.17 641.485 473.533Z" fill="#5D21D2"/>
<path opacity="0.45" d="M640.307 472.566C640.674 472.828 641.025 473.113 641.358 473.418C641.025 473.113 640.674 472.828 640.307 472.566V472.566Z" fill="#5D21D2"/>
<path opacity="0.45" d="M643.948 476.951C643.782 476.593 643.597 476.244 643.393 475.905C643.597 476.244 643.782 476.593 643.948 476.951V476.951Z" fill="#5D21D2"/>
<path opacity="0.45" d="M644.819 479.801C644.759 479.432 644.681 479.067 644.584 478.706C644.681 479.067 644.759 479.432 644.819 479.801V479.801Z" fill="#5D21D2"/>
<path opacity="0.45" d="M978.464 419.144H914.811C916.281 418.126 917.482 416.767 918.312 415.183C919.141 413.599 919.574 411.838 919.573 410.05V380.828C919.573 379.374 919.287 377.934 918.731 376.59C918.174 375.247 917.358 374.026 916.33 372.997C915.302 371.969 914.081 371.153 912.737 370.597C911.394 370.04 909.954 369.754 908.499 369.754H835.234C837.472 369.04 839.424 367.633 840.81 365.736C842.195 363.84 842.942 361.553 842.943 359.204V329.982C842.943 328.194 842.51 326.433 841.681 324.849C840.851 323.265 839.65 321.906 838.18 320.889H908.499C909.954 320.889 911.394 320.602 912.737 320.046C914.081 319.489 915.302 318.673 916.33 317.645C917.358 316.617 918.174 315.396 918.731 314.052C919.287 312.709 919.574 311.268 919.573 309.814V280.592C919.574 279.137 919.287 277.697 918.731 276.354C918.174 275.01 917.358 273.789 916.33 272.761C915.302 271.733 914.081 270.917 912.737 270.36C911.394 269.804 909.954 269.517 908.499 269.517H830.223C832.46 268.803 834.412 267.397 835.798 265.5C837.183 263.604 837.93 261.316 837.931 258.968V229.745C837.931 227.958 837.498 226.196 836.669 224.613C835.84 223.029 834.638 221.67 833.169 220.652H908.499C909.954 220.652 911.394 220.366 912.737 219.809C914.081 219.253 915.302 218.437 916.33 217.409C917.358 216.38 918.174 215.159 918.731 213.816C919.287 212.472 919.573 211.032 919.573 209.578V180.355C919.573 178.901 919.287 177.461 918.731 176.118C918.174 174.774 917.358 173.553 916.33 172.525C915.302 171.496 914.081 170.681 912.737 170.124C911.394 169.568 909.954 169.281 908.499 169.281H869.064C871.301 168.567 873.254 167.16 874.639 165.264C876.025 163.368 876.772 161.08 876.772 158.731V129.509C876.772 128.055 876.486 126.615 875.929 125.271C875.373 123.927 874.557 122.707 873.529 121.678C872.5 120.65 871.28 119.834 869.936 119.278C868.592 118.721 867.152 118.435 865.698 118.435H758.793C757.338 118.435 755.898 118.721 754.555 119.278C753.211 119.834 751.99 120.65 750.962 121.678C749.933 122.707 749.118 123.927 748.561 125.271C748.005 126.615 747.718 128.055 747.718 129.509C747.718 128.055 747.432 126.615 746.875 125.271C746.319 123.927 745.503 122.707 744.475 121.678C743.446 120.65 742.225 119.834 740.882 119.278C739.538 118.721 738.098 118.435 736.644 118.435H629.738C627.628 118.436 625.563 119.04 623.785 120.176C622.007 121.312 620.591 122.933 619.703 124.847C619.845 125.557 619.916 126.279 619.917 127.003V156.226C619.916 157.834 619.562 159.423 618.881 160.88C619.379 163.403 620.742 165.673 622.734 167.3H650.19C652.748 167.296 655.227 168.182 657.204 169.806H669.173C666.936 170.52 664.984 171.927 663.598 173.823C662.213 175.719 661.466 178.007 661.465 180.355C661.463 179.651 661.394 178.948 661.259 178.257C661.259 178.297 661.264 178.335 661.264 178.374V207.597C661.261 208.529 661.14 209.456 660.903 210.358C661.081 210.546 661.24 210.751 661.378 210.969C661.436 210.508 661.465 210.043 661.465 209.578C661.471 210.22 661.533 210.86 661.651 211.492C661.798 211.844 661.882 212.219 661.899 212.6C662.598 215.063 664.127 217.208 666.228 218.671H656.703C656.788 218.612 656.864 218.54 656.948 218.478C656.063 218.501 655.172 218.404 654.287 218.394C653.971 218.39 653.658 218.325 653.367 218.203C652.336 218.513 651.266 218.67 650.19 218.671L584.585 220.652C583.115 221.67 581.914 223.029 581.084 224.613C580.255 226.196 579.822 227.958 579.822 229.745V258.968C579.823 261.316 580.57 263.604 581.955 265.5C583.341 267.396 585.293 268.803 587.531 269.517L650.19 270.042C651.292 270.042 652.387 270.206 653.44 270.529C654.14 270.59 654.832 270.711 655.51 270.892C655.563 270.881 655.615 270.877 655.667 270.866C655.058 270.531 654.418 270.256 653.757 270.042H669.173C666.936 270.756 664.984 272.163 663.598 274.059C662.213 275.956 661.466 278.243 661.465 280.592C661.464 279.95 661.408 279.309 661.296 278.676C661.223 278.782 661.142 278.881 661.053 278.974C661.193 279.68 661.263 280.397 661.264 281.116V310.339C661.264 311.695 661.465 311.369 661.465 309.814C661.465 311.602 661.898 313.363 662.727 314.947C663.557 316.531 664.758 317.889 666.227 318.907L705.32 320.16C706.661 320.162 707.99 320.409 709.243 320.889H718.651C716.967 322.066 715.642 323.686 714.823 325.57C715.851 327.281 716.394 329.239 716.394 331.235V360.457C716.395 361.982 716.078 363.491 715.466 364.889C716.851 367.201 719.03 368.93 721.597 369.754H711.324C709.537 370.915 707.451 371.532 705.32 371.531H666.54C664.983 372.532 663.703 373.908 662.816 375.532C661.93 377.157 661.465 378.978 661.465 380.828C661.465 376.926 660.011 415.385 660.011 415.385C660.011 418.839 720.355 420.396 720.355 420.396C721.889 420.396 723.405 420.716 724.808 421.335C725.438 421.201 726.082 421.145 726.725 421.17C726.705 421.156 726.688 421.139 726.668 421.125H736.192C734.722 422.142 733.521 423.501 732.692 425.085C731.862 426.669 731.429 428.43 731.43 430.218C731.427 429.689 731.386 429.162 731.308 428.639C731.255 428.759 731.201 428.877 731.141 428.992C731.331 429.804 731.427 430.636 731.43 431.471V459.44C731.43 460.895 731.716 462.335 732.273 463.678C732.829 465.022 733.645 466.243 734.673 467.271C735.702 468.299 736.923 469.115 738.266 469.672C739.61 470.228 741.05 470.515 742.504 470.515H725.461C723.885 471.338 722.133 471.768 720.355 471.768H650.945C649.146 472.701 647.638 474.111 646.586 475.843C645.533 477.575 644.976 479.562 644.976 481.589V510.811C644.976 512.266 645.262 513.706 645.819 515.049C646.376 516.393 647.191 517.614 648.22 518.642C649.248 519.67 650.469 520.486 651.812 521.043C653.156 521.599 654.596 521.886 656.05 521.886H762.956C764.41 521.886 765.85 521.599 767.194 521.043C768.537 520.486 769.758 519.671 770.787 518.642C771.815 517.614 772.631 516.393 773.187 515.049C773.744 513.706 774.03 512.266 774.03 510.811C774.03 512.266 774.317 513.706 774.873 515.049C775.43 516.393 776.245 517.614 777.274 518.642C778.302 519.671 779.523 520.486 780.867 521.043C782.21 521.599 783.65 521.886 785.105 521.886H892.01C893.464 521.886 894.904 521.599 896.248 521.043C897.592 520.486 898.812 519.671 899.841 518.642C900.869 517.614 901.685 516.393 902.241 515.049C902.798 513.706 903.084 512.266 903.084 510.811V481.589C903.084 480.135 902.798 478.695 902.241 477.351C901.685 476.007 900.869 474.787 899.841 473.758C898.813 472.73 897.592 471.914 896.248 471.358C894.904 470.801 893.464 470.515 892.01 470.515H978.464C979.918 470.515 981.358 470.228 982.702 469.672C984.045 469.115 985.266 468.299 986.295 467.271C987.323 466.243 988.139 465.022 988.695 463.678C989.252 462.335 989.538 460.895 989.538 459.44V430.218C989.538 428.764 989.252 427.324 988.695 425.98C988.139 424.636 987.323 423.415 986.295 422.387C985.266 421.359 984.045 420.543 982.702 419.986C981.358 419.43 979.918 419.143 978.464 419.144V419.144ZM713.639 220.652C712.169 221.67 710.968 223.029 710.139 224.613C709.309 226.196 708.876 227.958 708.877 229.745C708.877 227.958 708.444 226.196 707.615 224.613C706.785 223.029 705.584 221.67 704.114 220.652H713.639ZM701.168 269.517C703.406 268.803 705.358 267.397 706.744 265.5C708.129 263.604 708.876 261.316 708.877 258.968C708.877 261.316 709.624 263.604 711.01 265.5C712.395 267.397 714.348 268.803 716.585 269.517H701.168ZM740.01 169.281C742.247 168.567 744.2 167.16 745.585 165.264C746.971 163.368 747.718 161.08 747.718 158.731C747.719 161.08 748.466 163.368 749.851 165.264C751.237 167.16 753.189 168.567 755.427 169.281H740.01ZM774.03 481.589C774.03 480.135 773.744 478.695 773.187 477.351C772.631 476.007 771.815 474.787 770.787 473.758C769.758 472.73 768.537 471.914 767.194 471.358C765.85 470.801 764.41 470.515 762.956 470.515H785.105C783.65 470.515 782.21 470.801 780.867 471.358C779.523 471.914 778.302 472.73 777.274 473.758C776.245 474.787 775.43 476.007 774.873 477.351C774.317 478.695 774.03 480.135 774.03 481.589V481.589ZM785.757 419.144C787.227 418.126 788.428 416.767 789.257 415.183C790.087 413.599 790.52 411.838 790.519 410.05C790.519 411.838 790.952 413.599 791.781 415.183C792.611 416.767 793.812 418.126 795.282 419.144H785.757ZM790.519 380.828C790.519 378.48 789.772 376.192 788.386 374.296C787.001 372.399 785.049 370.993 782.811 370.278H798.228C795.99 370.993 794.038 372.399 792.652 374.296C791.267 376.192 790.52 378.48 790.519 380.828V380.828ZM785.757 318.907C787.227 317.89 788.428 316.531 789.257 314.947C790.087 313.363 790.52 311.602 790.519 309.814C790.519 311.602 790.952 313.363 791.781 314.947C792.611 316.531 793.812 317.89 795.282 318.907H785.757ZM790.519 280.592C790.519 278.243 789.772 275.956 788.386 274.059C787.001 272.163 785.049 270.756 782.811 270.042H798.228C795.99 270.756 794.038 272.163 792.652 274.059C791.267 275.956 790.52 278.243 790.519 280.592V280.592ZM785.757 218.671C787.227 217.653 788.428 216.294 789.257 214.711C790.087 213.127 790.52 211.366 790.519 209.578C790.519 211.366 790.952 213.127 791.781 214.711C792.611 216.294 793.812 217.653 795.282 218.671H785.757ZM790.519 180.355C790.519 178.007 789.772 175.719 788.386 173.823C787.001 171.927 785.049 170.52 782.811 169.806H798.228C795.99 170.52 794.038 171.927 792.652 173.823C791.267 175.719 790.52 178.007 790.519 180.355V180.355ZM865.246 421.125C863.776 422.143 862.575 423.501 861.746 425.085C860.916 426.669 860.483 428.43 860.484 430.218C860.485 428.43 860.052 426.669 859.222 425.085C858.393 423.501 857.192 422.143 855.722 421.125H865.246ZM849.41 470.515C850.864 470.515 852.304 470.228 853.648 469.672C854.991 469.115 856.212 468.299 857.24 467.271C858.269 466.243 859.085 465.022 859.641 463.678C860.198 462.335 860.484 460.895 860.484 459.44C860.484 460.895 860.77 462.335 861.327 463.678C861.884 465.022 862.699 466.243 863.728 467.271C864.756 468.299 865.977 469.115 867.32 469.672C868.664 470.228 870.104 470.515 871.558 470.515H849.41Z" fill="#5D21D2"/>
<path opacity="0.45" d="M644.976 481.589C644.973 481.117 644.939 480.646 644.876 480.179C644.94 480.646 644.973 481.117 644.976 481.589Z" fill="#5D21D2"/>
<path opacity="0.45" d="M579.822 258.968C579.822 259.319 579.802 259.664 579.77 260.007C579.802 259.664 579.822 259.319 579.822 258.968Z" fill="#5D21D2"/>
<path opacity="0.45" d="M450.896 260.619C450.963 261.064 451.058 261.503 451.179 261.936C451.058 261.503 450.963 261.064 450.896 260.619V260.619Z" fill="#5D21D2"/>
<path opacity="0.45" d="M326.964 325.915C326.78 325.752 326.621 325.563 326.491 325.354C326.331 325.068 326.225 324.754 326.177 324.43C326.15 325.189 326.161 325.949 326.212 326.707C326.547 327.766 326.721 328.87 326.726 329.982C326.731 328.902 326.894 327.828 327.212 326.796C327.111 326.545 327.033 326.286 326.978 326.022C326.97 325.985 326.971 325.951 326.964 325.915Z" fill="#5D21D2"/>
<path opacity="0.45" d="M478.535 118.435H371.63C370.176 118.435 368.736 118.721 367.392 119.278C366.048 119.834 364.828 120.65 363.799 121.678C362.771 122.707 361.955 123.927 361.399 125.271C360.842 126.615 360.556 128.055 360.556 129.509C360.556 128.055 360.269 126.615 359.713 125.271C359.156 123.927 358.34 122.707 357.312 121.678C356.284 120.65 355.063 119.834 353.719 119.278C352.376 118.721 350.935 118.435 349.481 118.435H242.576C241.121 118.435 239.681 118.721 238.338 119.278C236.994 119.834 235.773 120.65 234.745 121.678C233.717 122.707 232.901 123.927 232.344 125.271C231.788 126.615 231.501 128.055 231.501 129.509V158.731C231.502 161.08 232.249 163.368 233.634 165.264C235.02 167.16 236.972 168.567 239.21 169.281H156.323C154.868 169.281 153.428 169.568 152.085 170.124C150.741 170.681 149.52 171.496 148.492 172.525C147.464 173.553 146.648 174.774 146.091 176.118C145.535 177.461 145.248 178.901 145.248 180.355V209.578C145.248 211.366 145.681 213.127 146.51 214.711C147.34 216.294 148.541 217.653 150.011 218.671H74.68C73.2257 218.671 71.7856 218.957 70.442 219.514C69.0984 220.07 67.8775 220.886 66.8492 221.915C65.8208 222.943 65.0051 224.164 64.4486 225.507C63.892 226.851 63.6056 228.291 63.6056 229.745V258.968C63.6056 260.422 63.892 261.862 64.4486 263.206C65.0051 264.549 65.8208 265.77 66.8492 266.798C67.8775 267.827 69.0984 268.643 70.442 269.199C71.7856 269.756 73.2257 270.042 74.68 270.042H152.957C150.719 270.756 148.767 272.163 147.381 274.059C145.996 275.956 145.249 278.243 145.248 280.592V309.814C145.248 311.602 145.681 313.363 146.51 314.947C147.34 316.531 148.541 317.89 150.011 318.907H79.6918C78.2375 318.907 76.7974 319.194 75.4538 319.75C74.1102 320.307 72.8893 321.123 71.861 322.151C70.8326 323.179 70.0169 324.4 69.4604 325.744C68.9038 327.087 68.6174 328.527 68.6174 329.982V359.204C68.6174 360.658 68.9038 362.098 69.4604 363.442C70.0169 364.786 70.8326 366.006 71.861 367.035C72.8893 368.063 74.1102 368.879 75.4538 369.435C76.7974 369.992 78.2375 370.278 79.6918 370.278H152.957C150.719 370.993 148.767 372.399 147.381 374.296C145.996 376.192 145.249 378.48 145.248 380.828V410.05C145.248 411.505 145.535 412.945 146.091 414.288C146.648 415.632 147.464 416.853 148.492 417.881C149.52 418.91 150.741 419.725 152.085 420.282C153.428 420.838 154.868 421.125 156.323 421.125H219.975C218.505 422.143 217.304 423.502 216.475 425.085C215.645 426.669 215.212 428.43 215.213 430.218V459.44C215.213 462.377 216.38 465.194 218.457 467.271C220.533 469.348 223.35 470.515 226.287 470.515H139.834C138.379 470.515 136.939 470.801 135.596 471.358C134.252 471.914 133.031 472.73 132.003 473.758C130.974 474.787 130.159 476.007 129.602 477.351C129.046 478.695 128.759 480.135 128.759 481.589V510.811C128.759 512.266 129.046 513.706 129.602 515.049C130.159 516.393 130.974 517.614 132.003 518.642C133.031 519.67 134.252 520.486 135.596 521.043C136.939 521.599 138.379 521.886 139.834 521.886H246.739C248.193 521.886 249.633 521.599 250.977 521.043C252.321 520.486 253.541 519.67 254.57 518.642C255.598 517.614 256.414 516.393 256.97 515.049C257.527 513.706 257.813 512.266 257.813 510.811C257.813 512.266 258.1 513.706 258.656 515.049C259.213 516.393 260.029 517.614 261.057 518.642C262.085 519.67 263.306 520.486 264.65 521.043C265.993 521.599 267.433 521.886 268.888 521.886H375.793C377.247 521.886 378.688 521.599 380.031 521.043C381.375 520.486 382.596 519.67 383.624 518.642C384.652 517.614 385.468 516.393 386.025 515.049C386.581 513.706 386.868 512.266 386.868 510.811V481.589C386.867 479.562 386.311 477.575 385.258 475.843C384.205 474.111 382.697 472.701 380.898 471.768H357.847C356.07 471.768 354.318 471.338 352.742 470.515H333.193C336.13 470.515 338.947 469.348 341.024 467.271C343.1 465.194 344.267 462.377 344.267 459.44C344.267 464.259 346.773 431.471 346.773 431.471C346.773 430.017 347.059 428.576 347.616 427.233C348.173 425.889 348.988 424.668 350.017 423.64C351.045 422.612 352.266 421.796 353.609 421.239C354.953 420.683 356.393 420.396 357.847 420.396L398.594 419.144C399.756 418.33 400.752 417.302 401.529 416.114C400.952 414.759 400.653 413.301 400.65 411.828V382.606C400.648 380.438 401.285 378.319 402.482 376.512C401.611 374.469 400.149 372.734 398.282 371.531H340.306C338.175 371.532 336.089 370.915 334.302 369.754H319.018C321.255 369.04 323.207 367.633 324.593 365.736C325.978 363.84 326.725 361.553 326.726 359.204L326.333 330.195C326.333 328.888 326.264 327.731 326.212 326.707C325.482 324.349 323.987 322.301 321.964 320.889H331.488C331.416 320.938 331.353 320.999 331.282 321.05C336.681 320.741 398.357 317.123 403.371 313.087C403.243 312.321 403.218 311.542 403.297 310.769C403.207 310.213 403.16 309.65 403.156 309.086V279.863C403.156 279.501 403.176 279.143 403.21 278.789C402.876 276.777 401.994 274.895 400.66 273.352C399.326 271.809 397.592 270.663 395.649 270.042H409.125C410.701 269.219 412.452 268.789 414.23 268.789H444.798C446.597 267.856 448.106 266.446 449.158 264.714C450.211 262.982 450.768 260.995 450.768 258.968V229.745C450.769 227.958 450.336 226.196 449.506 224.613C448.677 223.029 447.476 221.67 446.006 220.652L414.23 218.671C408.846 218.671 405.283 216.699 408.119 218.671H398.594C400.054 217.659 401.249 216.311 402.078 214.739C402.906 213.168 403.343 211.42 403.353 209.643C403.224 208.969 403.158 208.283 403.156 207.597V178.374C403.156 178.35 403.159 178.327 403.16 178.303C402.789 176.342 401.895 174.517 400.573 173.021C399.251 171.526 397.55 170.415 395.649 169.806H407.217C409.193 168.182 411.673 167.296 414.23 167.3H485.539C486.812 166.264 487.838 164.957 488.542 163.475C489.246 161.993 489.611 160.372 489.61 158.731V129.509C489.61 128.055 489.323 126.615 488.767 125.271C488.21 123.927 487.394 122.707 486.366 121.678C485.338 120.65 484.117 119.834 482.773 119.278C481.43 118.721 479.99 118.435 478.535 118.435V118.435ZM197.422 220.652C195.952 221.67 194.751 223.029 193.922 224.613C193.092 226.196 192.659 227.958 192.66 229.745C192.66 227.958 192.227 226.196 191.398 224.613C190.568 223.029 189.367 221.67 187.898 220.652H197.422ZM192.66 258.968C192.66 261.316 193.407 263.604 194.793 265.5C196.178 267.397 198.131 268.803 200.368 269.517H184.952C187.189 268.803 189.141 267.397 190.527 265.5C191.912 263.604 192.659 261.316 192.66 258.968V258.968ZM202.434 320.889C200.964 321.906 199.763 323.265 198.934 324.849C198.104 326.433 197.671 328.194 197.672 329.982C197.672 328.194 197.239 326.433 196.41 324.849C195.58 323.265 194.379 321.906 192.909 320.889H202.434ZM189.963 369.754C192.201 369.04 194.153 367.633 195.539 365.736C196.924 363.84 197.671 361.553 197.672 359.204C197.672 361.553 198.419 363.84 199.805 365.736C201.19 367.633 203.143 369.04 205.38 369.754H189.963ZM326.476 220.652C325.006 221.67 323.805 223.029 322.976 224.613C322.147 226.196 321.713 227.958 321.714 229.745C321.714 227.958 321.281 226.196 320.452 224.613C319.623 223.029 318.422 221.67 316.952 220.652H326.476ZM257.813 481.589C257.813 480.135 257.527 478.695 256.97 477.351C256.414 476.007 255.598 474.787 254.57 473.758C253.541 472.73 252.321 471.914 250.977 471.358C249.633 470.801 248.193 470.515 246.739 470.515H268.888C267.433 470.515 265.993 470.801 264.65 471.358C263.306 471.914 262.085 472.73 261.057 473.758C260.029 474.787 259.213 476.007 258.656 477.351C258.1 478.695 257.813 480.135 257.813 481.589V481.589ZM269.54 419.144C271.01 418.126 272.211 416.767 273.041 415.183C273.87 413.599 274.303 411.838 274.303 410.05C274.302 411.838 274.735 413.599 275.565 415.183C276.394 416.767 277.595 418.126 279.065 419.144H269.54ZM274.303 380.828C274.302 378.48 273.555 376.192 272.17 374.296C270.784 372.399 268.832 370.993 266.594 370.278H282.011C279.773 370.993 277.821 372.399 276.436 374.296C275.05 376.192 274.303 378.48 274.303 380.828V380.828ZM269.54 318.907C271.01 317.89 272.211 316.531 273.041 314.947C273.87 313.363 274.303 311.602 274.303 309.814C274.302 311.602 274.735 313.363 275.565 314.947C276.394 316.531 277.595 317.89 279.065 318.907H269.54ZM274.303 280.592C274.302 278.243 273.555 275.956 272.17 274.059C270.784 272.163 268.832 270.756 266.594 270.042H282.011C279.773 270.756 277.821 272.163 276.436 274.059C275.05 275.956 274.303 278.243 274.303 280.592V280.592ZM269.54 218.671C271.01 217.653 272.211 216.294 273.041 214.711C273.87 213.127 274.303 211.366 274.303 209.578C274.302 211.366 274.735 213.127 275.565 214.711C276.394 216.294 277.595 217.653 279.065 218.671H269.54ZM274.303 180.355C274.302 178.007 273.555 175.719 272.17 173.823C270.784 171.927 268.832 170.52 266.594 169.806H282.011C279.773 170.52 277.821 171.927 276.436 173.823C275.05 175.719 274.303 178.007 274.303 180.355V180.355ZM314.006 269.517C316.243 268.803 318.196 267.397 319.581 265.5C320.967 263.604 321.714 261.316 321.714 258.968C321.714 261.316 322.461 263.604 323.847 265.5C325.232 267.397 327.185 268.803 329.422 269.517H314.006ZM352.847 169.281C355.085 168.567 357.037 167.16 358.423 165.264C359.808 163.368 360.555 161.08 360.556 158.731C360.556 161.08 361.303 163.368 362.689 165.264C364.074 167.16 366.027 168.567 368.264 169.281H352.847Z" fill="#5D21D2"/>
<path opacity="0.45" d="M454.409 221.554C454.461 221.506 454.513 221.458 454.566 221.411C454.512 221.458 454.461 221.506 454.409 221.554Z" fill="#5D21D2"/>
<path opacity="0.45" d="M453.673 222.288C453.618 222.347 453.563 222.406 453.51 222.467C453.563 222.406 453.618 222.347 453.673 222.288Z" fill="#5D21D2"/>
<path opacity="0.45" d="M452.744 223.441C452.769 223.404 452.797 223.371 452.823 223.335C452.797 223.371 452.769 223.405 452.744 223.441Z" fill="#5D21D2"/>
<path opacity="0.45" d="M451.245 262.161C451.373 262.592 451.528 263.015 451.708 263.427C451.528 263.015 451.373 262.592 451.245 262.161V262.161Z" fill="#5D21D2"/>
<path opacity="0.45" d="M452.426 264.791C452.674 265.188 452.947 265.569 453.244 265.932C452.947 265.569 452.674 265.188 452.426 264.791Z" fill="#5D21D2"/>
<path opacity="0.45" d="M451.764 263.544C451.956 263.97 452.175 264.382 452.419 264.78C452.175 264.382 451.956 263.97 451.764 263.544V263.544Z" fill="#5D21D2"/>
<path opacity="0.45" d="M451.071 227.21C451.103 227.074 451.138 226.94 451.175 226.807C451.138 226.941 451.103 227.074 451.071 227.21Z" fill="#5D21D2"/>
<path opacity="0.45" d="M451.445 225.962C451.486 225.852 451.523 225.74 451.566 225.632C451.523 225.74 451.486 225.852 451.445 225.962Z" fill="#5D21D2"/>
<path opacity="0.45" d="M450.848 228.465C450.863 228.336 450.887 228.209 450.907 228.081C450.887 228.209 450.863 228.335 450.848 228.465Z" fill="#5D21D2"/>
<path opacity="0.45" d="M452.055 224.569C452.062 224.557 452.067 224.543 452.074 224.53C452.067 224.543 452.062 224.557 452.055 224.569Z" fill="#5D21D2"/>
<path opacity="0.1" d="M241.593 169.806L352.97 169.806C357.851 169.806 361.808 165.849 361.808 160.967V127.273C361.808 122.392 357.851 118.435 352.97 118.435L241.593 118.435C236.711 118.435 232.754 122.392 232.754 127.273V160.967C232.754 165.849 236.711 169.806 241.593 169.806Z" fill="black"/>
<path opacity="0.1" d="M627.503 169.806L738.88 169.806C743.761 169.806 747.718 165.849 747.718 160.967V127.273C747.718 122.392 743.761 118.435 738.88 118.435L627.503 118.435C622.621 118.435 618.664 122.392 618.664 127.273V160.967C618.664 165.849 622.621 169.806 627.503 169.806Z" fill="black"/>
<path opacity="0.1" d="M799.157 219.924L910.534 219.924C915.416 219.924 919.373 215.967 919.373 211.085V177.391C919.373 172.51 915.416 168.553 910.534 168.553H799.157C794.276 168.553 790.319 172.51 790.319 177.391V211.085C790.319 215.967 794.276 219.924 799.157 219.924Z" fill="black"/>
<path opacity="0.1" d="M588.661 270.042H700.038C704.919 270.042 708.877 266.085 708.877 261.204V227.51C708.877 222.628 704.919 218.671 700.038 218.671H588.661C583.78 218.671 579.822 222.628 579.822 227.51V261.204C579.822 266.085 583.78 270.042 588.661 270.042Z" fill="black"/>
<path opacity="0.1" d="M799.157 321.413H910.534C915.416 321.413 919.373 317.456 919.373 312.575V278.881C919.373 273.999 915.416 270.042 910.534 270.042H799.157C794.276 270.042 790.319 273.999 790.319 278.881V312.575C790.319 317.456 794.276 321.413 799.157 321.413Z" fill="black"/>
<path opacity="0.1" d="M799.157 421.649H910.534C915.416 421.649 919.373 417.692 919.373 412.811V379.117C919.373 374.236 915.416 370.278 910.534 370.278H799.157C794.276 370.278 790.319 374.236 790.319 379.117V412.811C790.319 417.692 794.276 421.649 799.157 421.649Z" fill="black"/>
<path opacity="0.1" d="M852.421 420.396H739.493C737.749 420.397 736.053 420.963 734.658 422.009C733.263 423.056 732.245 424.526 731.757 426.199C731.787 426.655 731.756 427.112 731.666 427.559C731.607 427.821 731.531 428.079 731.436 428.331C731.436 428.374 731.43 428.416 731.43 428.46V463.705C731.43 465.843 732.279 467.894 733.791 469.406C735.303 470.918 737.354 471.768 739.493 471.768H852.421C854.559 471.768 856.61 470.918 858.122 469.406C859.634 467.894 860.484 465.843 860.484 463.705V428.46C860.484 427.401 860.275 426.352 859.87 425.374C859.465 424.396 858.871 423.507 858.122 422.758C857.374 422.009 856.485 421.415 855.507 421.01C854.528 420.605 853.48 420.396 852.421 420.396V420.396Z" fill="black"/>
<path opacity="0.1" d="M653.815 521.886H765.192C770.073 521.886 774.03 517.929 774.03 513.047V479.353C774.03 474.472 770.073 470.515 765.192 470.515H653.815C648.933 470.515 644.976 474.472 644.976 479.353V513.047C644.976 517.929 648.933 521.886 653.815 521.886Z" fill="black"/>
<path opacity="0.1" d="M282.94 219.924L394.317 219.924C399.199 219.924 403.156 215.967 403.156 211.085V177.391C403.156 172.51 399.199 168.553 394.317 168.553H282.94C278.059 168.553 274.102 172.51 274.102 177.391V211.085C274.102 215.967 278.059 219.924 282.94 219.924Z" fill="black"/>
<path opacity="0.1" d="M202.751 270.042H314.128C319.01 270.042 322.967 266.085 322.967 261.204V227.51C322.967 222.628 319.01 218.671 314.128 218.671H202.751C197.87 218.671 193.913 222.628 193.913 227.51V261.204C193.913 266.085 197.87 270.042 202.751 270.042Z" fill="black"/>
<path opacity="0.1" d="M153.886 321.413H265.263C270.145 321.413 274.102 317.456 274.102 312.575V278.881C274.102 273.999 270.145 270.042 265.263 270.042H153.886C149.005 270.042 145.048 273.999 145.048 278.881V312.575C145.048 317.456 149.005 321.413 153.886 321.413Z" fill="black"/>
<path opacity="0.1" d="M206.51 371.531H317.887C322.769 371.531 326.726 367.574 326.726 362.693V328.999C326.726 324.117 322.769 320.16 317.887 320.16H206.51C201.629 320.16 197.672 324.117 197.672 328.999V362.693C197.672 367.574 201.629 371.531 206.51 371.531Z" fill="black"/>
<path opacity="0.1" d="M153.886 421.649H265.263C270.145 421.649 274.102 417.692 274.102 412.811V379.117C274.102 374.236 270.145 370.278 265.263 370.278H153.886C149.005 370.278 145.048 374.236 145.048 379.117V412.811C145.048 417.692 149.005 421.649 153.886 421.649Z" fill="black"/>
<path opacity="0.45" d="M95.5022 471.823H206.879C211.761 471.823 215.718 467.866 215.718 462.985V429.291C215.718 424.409 211.761 420.452 206.879 420.452H95.5022C90.6208 420.452 86.6636 424.409 86.6636 429.291V462.985C86.6636 467.866 90.6208 471.823 95.5022 471.823Z" fill="#5D21D2"/>
<path opacity="0.45" d="M849.02 371.476H960.397C965.278 371.476 969.235 367.519 969.235 362.637V328.943C969.235 324.062 965.278 320.105 960.397 320.105H849.02C844.138 320.105 840.181 324.062 840.181 328.943V362.637C840.181 367.519 844.138 371.476 849.02 371.476Z" fill="#5D21D2"/>
<path opacity="0.45" d="M843.546 270.216H954.923C959.805 270.216 963.762 266.259 963.762 261.378V227.684C963.762 222.802 959.805 218.845 954.923 218.845H843.546C838.665 218.845 834.708 222.802 834.708 227.684V261.378C834.708 266.259 838.665 270.216 843.546 270.216Z" fill="#5D21D2"/>
<path opacity="0.45" d="M908.316 521.085H1019.69C1024.57 521.085 1028.53 517.127 1028.53 512.246V478.552C1028.53 473.671 1024.57 469.713 1019.69 469.713H908.316C903.435 469.713 899.477 473.671 899.477 478.552V512.246C899.477 517.127 903.435 521.085 908.316 521.085Z" fill="#5D21D2"/>
<path opacity="0.45" d="M8.83861 521.997H120.216C125.097 521.997 129.054 518.04 129.054 513.158V479.464C129.054 474.583 125.097 470.626 120.216 470.626H8.83861C3.95718 470.626 0 474.583 0 479.464V513.158C0 518.04 3.95718 521.997 8.83861 521.997Z" fill="#5D21D2"/>
<path opacity="0.45" d="M26.1713 420.737H137.548C142.43 420.737 146.387 416.78 146.387 411.899V378.205C146.387 373.323 142.43 369.366 137.548 369.366H26.1713C21.2899 369.366 17.3327 373.323 17.3327 378.205V411.899C17.3327 416.78 21.2899 420.737 26.1713 420.737Z" fill="#5D21D2"/>
<path opacity="0.45" d="M26.1713 321.302H137.548C142.43 321.302 146.387 317.345 146.387 312.464V278.77C146.387 273.888 142.43 269.931 137.548 269.931H26.1713C21.2899 269.931 17.3327 273.888 17.3327 278.77V312.464C17.3327 317.345 21.2899 321.302 26.1713 321.302Z" fill="#5D21D2"/>
<path opacity="0.45" d="M30.7325 220.042L142.11 220.042C146.991 220.042 150.948 216.085 150.948 211.204V177.51C150.948 172.629 146.991 168.671 142.11 168.671H30.7325C25.8511 168.671 21.8939 172.629 21.8939 177.51V211.204C21.8939 216.085 25.8511 220.042 30.7325 220.042Z" fill="#5D21D2"/>
<path opacity="0.1" d="M30.7325 220.042L142.11 220.042C146.991 220.042 150.948 216.085 150.948 211.204V177.51C150.948 172.629 146.991 168.671 142.11 168.671H30.7325C25.8511 168.671 21.8939 172.629 21.8939 177.51V211.204C21.8939 216.085 25.8511 220.042 30.7325 220.042Z" fill="black"/>
<path opacity="0.45" d="M112.835 169.869L224.212 169.869C229.093 169.869 233.051 165.912 233.051 161.03V127.336C233.051 122.455 229.093 118.498 224.212 118.498L112.835 118.498C107.954 118.498 103.996 122.455 103.996 127.336V161.03C103.996 165.912 107.954 169.869 112.835 169.869Z" fill="#5D21D2"/>
<path opacity="0.1" d="M225.305 471.768H336.681C341.563 471.768 345.52 467.81 345.52 462.929V429.235C345.52 424.354 341.563 420.397 336.681 420.397H225.305C220.423 420.397 216.466 424.354 216.466 429.235V462.929C216.466 467.81 220.423 471.768 225.305 471.768Z" fill="black"/>
<path opacity="0.1" d="M137.598 521.886H248.975C253.856 521.886 257.813 517.929 257.813 513.047V479.353C257.813 474.472 253.856 470.515 248.975 470.515H137.598C132.716 470.515 128.759 474.472 128.759 479.353V513.047C128.759 517.929 132.716 521.886 137.598 521.886Z" fill="black"/>
</g>
<path opacity="0.5" d="M810.335 57.8407C826.308 57.8407 839.256 44.8926 839.256 28.9203C839.256 12.9481 826.308 0 810.335 0C794.363 0 781.415 12.9481 781.415 28.9203C781.415 44.8926 794.363 57.8407 810.335 57.8407Z" fill="#5D21D2"/>
<path opacity="0.5" d="M251.939 81.3538H245.058C245.692 81.3557 246.32 81.2324 246.906 80.9912C247.492 80.75 248.024 80.3955 248.473 79.948C248.922 79.5006 249.278 78.969 249.521 78.3837C249.764 77.7985 249.889 77.171 249.889 76.5373C249.889 75.9037 249.764 75.2762 249.521 74.6909C249.278 74.1057 248.922 73.5741 248.473 73.1266C248.024 72.6792 247.492 72.3247 246.906 72.0835C246.32 71.8423 245.692 71.719 245.058 71.7208H189.324C188.691 71.719 188.063 71.8423 187.477 72.0835C186.891 72.3247 186.358 72.6792 185.91 73.1266C185.461 73.5741 185.105 74.1057 184.862 74.6909C184.619 75.2762 184.494 75.9037 184.494 76.5373C184.494 77.171 184.619 77.7985 184.862 78.3837C185.105 78.969 185.461 79.5006 185.91 79.948C186.358 80.3955 186.891 80.75 187.477 80.9912C188.063 81.2324 188.691 81.3557 189.324 81.3538H196.205C195.572 81.3526 194.944 81.4762 194.359 81.7177C193.773 81.9591 193.241 82.3137 192.793 82.7611C192.345 83.2085 191.989 83.7399 191.746 84.3249C191.504 84.9099 191.379 85.537 191.379 86.1703C191.379 86.8037 191.504 87.4308 191.746 88.0158C191.989 88.6008 192.345 89.1322 192.793 89.5796C193.241 90.027 193.773 90.3815 194.359 90.623C194.944 90.8645 195.572 90.9881 196.205 90.9868H186.572C185.297 90.9905 184.076 91.4996 183.175 92.4025C182.275 93.3053 181.77 94.5283 181.77 95.8033C181.77 97.0783 182.275 98.3014 183.175 99.2042C184.076 100.107 185.297 100.616 186.572 100.62H242.306C243.581 100.616 244.803 100.107 245.703 99.2042C246.603 98.3014 247.109 97.0783 247.109 95.8033C247.109 94.5283 246.603 93.3053 245.703 92.4025C244.803 91.4996 243.581 90.9905 242.306 90.9868H251.939C253.215 90.9842 254.437 90.4756 255.339 89.5727C256.24 88.6697 256.746 87.4461 256.746 86.1703C256.746 84.8946 256.24 83.671 255.339 82.768C254.437 81.865 253.215 81.3564 251.939 81.3538V81.3538Z" fill="#DEE3F3"/>
<path opacity="0.5" d="M806.67 25.445H801.433C802.405 25.445 803.338 25.0588 804.025 24.3713C804.712 23.6839 805.099 22.7515 805.099 21.7793C805.099 20.8071 804.712 19.8747 804.025 19.1873C803.338 18.4999 802.405 18.1136 801.433 18.1136H759.016C758.044 18.1136 757.111 18.4999 756.424 19.1873C755.736 19.8747 755.35 20.8071 755.35 21.7793C755.35 22.7515 755.736 23.6839 756.424 24.3713C757.111 25.0588 758.044 25.445 759.016 25.445H764.253C763.28 25.445 762.348 25.8312 761.661 26.5186C760.973 27.2061 760.587 28.1384 760.587 29.1106C760.587 30.0828 760.973 31.0152 761.661 31.7027C762.348 32.3901 763.28 32.7763 764.253 32.7763H756.921C756.44 32.7763 755.963 32.8711 755.518 33.0553C755.074 33.2396 754.67 33.5096 754.329 33.85C753.989 34.1903 753.719 34.5944 753.535 35.0392C753.35 35.4839 753.256 35.9606 753.256 36.442C753.256 36.9234 753.35 37.4 753.535 37.8448C753.719 38.2895 753.989 38.6936 754.329 39.034C754.67 39.3744 755.074 39.6444 755.518 39.8286C755.963 40.0128 756.44 40.1076 756.921 40.1076H799.338C799.82 40.1076 800.296 40.0128 800.741 39.8286C801.186 39.6444 801.59 39.3744 801.93 39.034C802.271 38.6936 802.541 38.2895 802.725 37.8448C802.909 37.4 803.004 36.9234 803.004 36.442C803.004 35.9606 802.909 35.4839 802.725 35.0392C802.541 34.5944 802.271 34.1903 801.93 33.85C801.59 33.5096 801.186 33.2396 800.741 33.0553C800.296 32.8711 799.82 32.7763 799.338 32.7763H806.67C807.642 32.7763 808.574 32.3901 809.262 31.7027C809.949 31.0152 810.335 30.0828 810.335 29.1106C810.335 28.1384 809.949 27.2061 809.262 26.5186C808.574 25.8312 807.642 25.445 806.67 25.445H806.67Z" fill="#DEE3F3"/>
<path opacity="0.5" d="M383.939 13.3538H377.058C377.692 13.3557 378.32 13.2324 378.906 12.9912C379.492 12.75 380.024 12.3955 380.473 11.948C380.922 11.5006 381.278 10.969 381.521 10.3838C381.764 9.79848 381.889 9.17103 381.889 8.53734C381.889 7.90366 381.764 7.27621 381.521 6.69094C381.278 6.10567 380.922 5.57408 380.473 5.12665C380.024 4.67921 379.492 4.32472 378.906 4.08349C378.32 3.84225 377.692 3.71902 377.058 3.72085H321.324C320.691 3.71902 320.063 3.84225 319.477 4.08349C318.891 4.32472 318.358 4.67921 317.91 5.12665C317.461 5.57408 317.105 6.10567 316.862 6.69094C316.619 7.27621 316.494 7.90366 316.494 8.53734C316.494 9.17103 316.619 9.79848 316.862 10.3838C317.105 10.969 317.461 11.5006 317.91 11.948C318.358 12.3955 318.891 12.75 319.477 12.9912C320.063 13.2324 320.691 13.3557 321.324 13.3538H328.205C327.572 13.3526 326.944 13.4762 326.359 13.7177C325.773 13.9591 325.241 14.3137 324.793 14.7611C324.345 15.2085 323.989 15.7399 323.746 16.3249C323.504 16.9099 323.379 17.537 323.379 18.1703C323.379 18.8037 323.504 19.4308 323.746 20.0158C323.989 20.6008 324.345 21.1322 324.793 21.5796C325.241 22.027 325.773 22.3816 326.359 22.623C326.944 22.8645 327.572 22.9881 328.205 22.9868H318.572C317.297 22.9905 316.076 23.4996 315.175 24.4025C314.275 25.3053 313.77 26.5283 313.77 27.8033C313.77 29.0784 314.275 30.3014 315.175 31.2042C316.076 32.1071 317.297 32.6162 318.572 32.6198H374.306C375.581 32.6162 376.803 32.1071 377.703 31.2042C378.603 30.3014 379.109 29.0784 379.109 27.8033C379.109 26.5283 378.603 25.3053 377.703 24.4025C376.803 23.4996 375.581 22.9905 374.306 22.9868H383.939C385.215 22.9842 386.437 22.4756 387.339 21.5727C388.24 20.6697 388.746 19.4461 388.746 18.1703C388.746 16.8946 388.24 15.671 387.339 14.768C386.437 13.865 385.215 13.3564 383.939 13.3538V13.3538Z" fill="#DEE3F3"/>
<path d="M597.031 245H390.969C383.806 245 378 251.854 378 260.308V356.692C378 365.146 383.806 372 390.969 372H597.031C604.194 372 610 365.146 610 356.692V260.308C610 251.854 604.194 245 597.031 245Z" fill="#5D21D2"/>
<path opacity="0.1" d="M591.421 355.826H396.399V357.844H591.421V355.826Z" fill="black"/>
<path opacity="0.3" d="M591.022 271H396V344.974H591.022V271Z" fill="black"/>
<path d="M514.081 372.337H473.734V395.88H514.081V372.337Z" fill="#5D21D2"/>
<path d="M577.971 389.152H409.848V523.651H577.971V389.152Z" fill="#5D21D2"/>
<path d="M581.334 550.55H406.486V567.363H581.334V550.55Z" fill="#5D21D2"/>
<path d="M435.067 607.712V627.887V658.149V674.961V685.048H465.329V674.961V658.149V627.887V607.712V584.175H435.067V607.712Z" fill="#5D21D2"/>
<path d="M525.853 584.175V607.712V627.887V658.149V674.961V685.048H556.115V674.961V658.149V627.887V607.712V584.175H525.853Z" fill="#5D21D2"/>
<path d="M386.949 419.415V450.515C378.643 451.966 370.903 455.697 364.594 461.291C358.744 466.709 354.195 473.38 351.287 480.805C347.396 490.23 345.505 500.697 344.733 510.593C343.782 523.94 344.406 537.353 346.594 550.554H312.97C311.542 531.967 311.997 516.019 313.85 502.326C315.926 486.888 319.77 474.321 324.641 464.101C334.382 443.669 348.238 432.584 360.411 426.563C374.868 419.415 386.949 419.415 386.949 419.415Z" fill="#5D21D2"/>
<path opacity="0.3" d="M465.329 584.175H435.067V607.712H465.329V584.175Z" fill="black"/>
<path opacity="0.3" d="M465.329 627.887H435.067V658.149H465.329V627.887Z" fill="black"/>
<path opacity="0.3" d="M556.115 584.175H525.853V607.712H556.115V584.175Z" fill="black"/>
<path opacity="0.3" d="M556.115 627.887H525.853V658.149H556.115V627.887Z" fill="black"/>
<path opacity="0.3" d="M386.949 419.415V450.515C378.643 451.966 370.903 455.697 364.594 461.291L360.411 426.563C374.868 419.415 386.949 419.415 386.949 419.415Z" fill="black"/>
<path opacity="0.3" d="M351.287 480.805C347.396 490.23 345.505 500.697 344.733 510.593L313.849 502.326C315.926 486.888 319.77 474.321 324.641 464.101L351.287 480.805Z" fill="black"/>
<path d="M600.871 419.415V450.515C609.177 451.966 616.916 455.697 623.225 461.291C629.075 466.709 633.625 473.38 636.533 480.805C640.423 490.23 642.314 500.697 643.086 510.593C644.038 523.94 643.414 537.353 641.226 550.554H674.85C676.278 531.967 675.823 516.019 673.97 502.326C671.894 486.888 668.05 474.321 663.179 464.101C653.437 443.669 639.582 432.584 627.409 426.563C612.951 419.415 600.871 419.415 600.871 419.415Z" fill="#5D21D2"/>
<path opacity="0.3" d="M600.871 419.415V450.515C609.177 451.966 616.916 455.697 623.225 461.291L627.409 426.563C612.951 419.415 600.871 419.415 600.871 419.415Z" fill="black"/>
<path opacity="0.3" d="M636.533 480.805C640.423 490.23 642.314 500.697 643.086 510.593L673.97 502.326C671.894 486.888 668.05 474.321 663.179 464.101L636.533 480.805Z" fill="black"/>
<path opacity="0.1" d="M514.081 372.337H473.734V375.124H514.081V372.337Z" fill="black"/>
<path opacity="0.1" d="M580.959 413.117V469.427C578.947 467.256 577.831 464.405 577.833 461.445V421.09C577.831 418.133 578.948 415.285 580.959 413.117V413.117Z" fill="black"/>
<path opacity="0.1" d="M410.445 416.83V458.983C410.245 461.648 409.139 464.165 407.312 466.116V409.697C409.139 411.648 410.245 414.164 410.445 416.83V416.83Z" fill="black"/>
<path opacity="0.1" d="M569.565 523.653H418.257V525.645H569.565V523.653Z" fill="black"/>
<path opacity="0.1" d="M488.863 567.366H414.892V568.91H488.863V567.366Z" fill="black"/>
<path opacity="0.1" d="M569.565 567.366H495.594V568.91H569.565V567.366Z" fill="black"/>
<path d="M434.722 165.166H423.143V264.742H434.722V165.166Z" fill="#5D21D2"/>
<path d="M567.489 165.166H555.911V264.742H567.489V165.166Z" fill="#5D21D2"/>
<path opacity="0.1" d="M428.547 179.06C435.794 179.06 441.669 173.185 441.669 165.938C441.669 158.691 435.794 152.816 428.547 152.816C421.299 152.816 415.424 158.691 415.424 165.938C415.424 173.185 421.299 179.06 428.547 179.06Z" fill="black"/>
<path d="M428.547 178.288C435.794 178.288 441.669 172.413 441.669 165.166C441.669 157.919 435.794 152.044 428.547 152.044C421.299 152.044 415.424 157.919 415.424 165.166C415.424 172.413 421.299 178.288 428.547 178.288Z" fill="#5D21D2"/>
<path opacity="0.1" d="M562.086 179.06C569.333 179.06 575.208 173.185 575.208 165.938C575.208 158.691 569.333 152.816 562.086 152.816C554.838 152.816 548.963 158.691 548.963 165.938C548.963 173.185 554.838 179.06 562.086 179.06Z" fill="black"/>
<path d="M562.086 178.288C569.333 178.288 575.208 172.413 575.208 165.166C575.208 157.919 569.333 152.044 562.086 152.044C554.838 152.044 548.963 157.919 548.963 165.166C548.963 172.413 554.838 178.288 562.086 178.288Z" fill="#5D21D2"/>
<path d="M151.522 470.212C151.522 470.212 189.922 545.59 158.633 586.835C127.345 628.079 161.478 740.435 161.478 740.435" stroke="#FC6681" stroke-width="2" stroke-miterlimit="10"/>
<path d="M162.9 446.746C162.9 461.277 152.233 473.057 152.233 473.057C152.233 473.057 141.567 461.277 141.567 446.746C141.567 432.215 152.233 420.435 152.233 420.435C152.233 420.435 162.9 432.215 162.9 446.746Z" fill="#FC6681"/>
<path d="M171.433 470.212C171.433 470.212 133.033 545.59 164.322 586.835C195.611 628.079 161.478 740.435 161.478 740.435" stroke="#FFD037" stroke-width="2" stroke-miterlimit="10"/>
<path d="M160.056 446.746C160.056 461.277 170.722 473.057 170.722 473.057C170.722 473.057 181.389 461.277 181.389 446.746C181.389 432.215 170.722 420.435 170.722 420.435C170.722 420.435 160.056 432.215 160.056 446.746Z" fill="#FFD037"/>
<path d="M187.078 470.212C187.078 470.212 225.478 545.59 194.189 586.835C162.9 628.079 197.033 740.435 197.033 740.435" stroke="#FC6681" stroke-width="2" stroke-miterlimit="10"/>
<path d="M198.456 446.746C198.456 461.277 187.789 473.057 187.789 473.057C187.789 473.057 177.122 461.277 177.122 446.746C177.122 432.215 187.789 420.435 187.789 420.435C187.789 420.435 198.456 432.215 198.456 446.746Z" fill="#FC6681"/>
<path d="M192.476 507.141C182.401 517.613 166.547 518.707 166.547 518.707C166.547 518.707 167.028 502.822 177.102 492.351C187.177 481.879 203.031 480.785 203.031 480.785C203.031 480.785 202.55 496.669 192.476 507.141Z" fill="#FC6681"/>
<path d="M193.476 559.141C183.401 569.613 167.547 570.707 167.547 570.707C167.547 570.707 168.028 554.822 178.102 544.351C188.177 533.879 204.031 532.785 204.031 532.785C204.031 532.785 203.55 548.669 193.476 559.141Z" fill="#FC6681"/>
<path d="M138.844 587.753C148.37 598.726 148.038 614.614 148.038 614.614C148.038 614.614 132.261 612.712 122.734 601.739C113.208 590.766 113.54 574.878 113.54 574.878C113.54 574.878 129.317 576.78 138.844 587.753Z" fill="#FC6681"/>
<path d="M147.682 476.855C159.794 484.882 163.721 500.281 163.721 500.281C163.721 500.281 148.009 502.665 135.896 494.637C123.784 486.61 119.857 471.211 119.857 471.211C119.857 471.211 135.569 468.827 147.682 476.855Z" fill="#FC6681"/>
<path d="M206.989 470.212C206.989 470.212 168.589 545.59 199.878 586.835C231.167 628.079 197.033 740.435 197.033 740.435" stroke="#FFD037" stroke-width="2" stroke-miterlimit="10"/>
<path d="M195.611 446.746C195.611 461.277 206.278 473.057 206.278 473.057C206.278 473.057 216.945 461.277 216.945 446.746C216.945 432.215 206.278 420.435 206.278 420.435C206.278 420.435 195.611 432.215 195.611 446.746Z" fill="#FFD037"/>
<path d="M198.68 508.259C188.481 518.609 187.81 534.487 187.81 534.487C187.81 534.487 203.676 533.583 213.876 523.233C224.075 512.882 224.745 497.005 224.745 497.005C224.745 497.005 208.879 497.909 198.68 508.259Z" fill="#FFD037"/>
<path d="M218.68 580.259C208.481 590.609 207.81 606.487 207.81 606.487C207.81 606.487 223.676 605.583 233.876 595.233C244.075 584.882 244.745 569.005 244.745 569.005C244.745 569.005 228.879 569.909 218.68 580.259Z" fill="#FFD037"/>
<path d="M189.256 564.435C189.256 564.435 212.371 527.999 244.813 527.217" stroke="#FFD037" stroke-width="2" stroke-miterlimit="10"/>
<path d="M171.256 542.435C171.256 542.435 148.14 505.999 115.698 505.217" stroke="#FC6681" stroke-width="2" stroke-miterlimit="10"/>
<path d="M168.256 594.435C168.256 594.435 191.371 557.999 223.813 557.217" stroke="#FFD037" stroke-width="2" stroke-miterlimit="10"/>
<path d="M243.756 532.935C247.069 532.935 249.756 530.248 249.756 526.935C249.756 523.621 247.069 520.935 243.756 520.935C240.442 520.935 237.756 523.621 237.756 526.935C237.756 530.248 240.442 532.935 243.756 532.935Z" fill="#FFD037"/>
<path d="M116.256 511.435C119.569 511.435 122.256 508.748 122.256 505.435C122.256 502.121 119.569 499.435 116.256 499.435C112.942 499.435 110.256 502.121 110.256 505.435C110.256 508.748 112.942 511.435 116.256 511.435Z" fill="#FC6681"/>
<path d="M185.256 606.435C185.256 606.435 162.14 569.999 129.698 569.217" stroke="#FC6681" stroke-width="2" stroke-miterlimit="10"/>
<path d="M130.256 575.435C133.569 575.435 136.256 572.748 136.256 569.435C136.256 566.121 133.569 563.435 130.256 563.435C126.942 563.435 124.256 566.121 124.256 569.435C124.256 572.748 126.942 575.435 130.256 575.435Z" fill="#FC6681"/>
<path d="M224.256 563.435C227.569 563.435 230.256 560.748 230.256 557.435C230.256 554.121 227.569 551.435 224.256 551.435C220.942 551.435 218.256 554.121 218.256 557.435C218.256 560.748 220.942 563.435 224.256 563.435Z" fill="#FFD037"/>
<path d="M914.65 483.521C914.65 483.521 927.996 500.974 908.49 527.326C888.983 553.677 872.898 575.922 879.4 592.349C879.4 592.349 908.832 543.41 932.788 542.726C956.743 542.041 941.001 512.952 914.65 483.521Z" fill="#FC6681"/>
<path opacity="0.1" d="M914.65 483.521C915.813 485.207 916.732 487.05 917.377 488.994C940.75 516.456 953.202 542.084 930.734 542.726C909.806 543.324 884.701 580.746 878.688 590.197C878.885 590.927 879.123 591.645 879.4 592.349C879.4 592.349 908.832 543.41 932.788 542.726C956.744 542.041 941.001 512.952 914.65 483.521Z" fill="black"/>
<path d="M939.461 505.765C939.461 511.908 938.772 516.888 937.921 516.888C937.071 516.888 936.381 511.908 936.381 505.765C936.381 499.623 937.242 502.514 938.092 502.514C938.943 502.514 939.461 499.623 939.461 505.765Z" fill="#FFD037"/>
<path d="M947.975 513.099C942.582 516.039 937.879 517.817 937.472 517.07C937.065 516.323 941.108 513.335 946.501 510.395C951.895 507.455 949.768 509.594 950.175 510.341C950.582 511.088 953.369 510.159 947.975 513.099Z" fill="#FFD037"/>
<path d="M844.151 483.521C844.151 483.521 830.804 500.974 850.311 527.326C869.818 553.677 885.903 575.922 879.4 592.349C879.4 592.349 849.969 543.41 826.013 542.726C802.057 542.041 817.799 512.952 844.151 483.521Z" fill="#FC6681"/>
<path opacity="0.1" d="M844.151 483.521C842.987 485.207 842.069 487.05 841.424 488.994C818.051 516.456 805.598 542.084 828.066 542.726C848.994 543.324 874.1 580.746 880.112 590.197C879.915 590.927 879.677 591.645 879.4 592.349C879.4 592.349 849.969 543.41 826.013 542.726C802.057 542.041 817.799 512.952 844.151 483.521Z" fill="black"/>
<path d="M819.339 505.765C819.339 511.908 820.029 516.888 820.879 516.888C821.73 516.888 822.419 511.908 822.419 505.765C822.419 499.623 821.559 502.514 820.708 502.514C819.858 502.514 819.339 499.623 819.339 505.765Z" fill="#FFD037"/>
<path d="M810.825 513.099C816.219 516.039 820.921 517.817 821.328 517.07C821.735 516.323 817.693 513.335 812.299 510.395C806.906 507.455 809.033 509.594 808.626 510.341C808.219 511.088 805.432 510.159 810.825 513.099Z" fill="#FFD037"/>
<path d="M823.59 590.065C823.59 590.065 860.906 588.916 872.152 580.907C883.398 572.899 929.554 563.337 932.344 576.18C935.133 589.024 988.423 640.058 946.293 640.398C904.163 640.737 848.402 633.835 837.178 626.998C825.953 620.161 823.59 590.065 823.59 590.065Z" fill="#A8A8A8"/>
<path opacity="0.2" d="M947.045 635.927C904.915 636.267 849.154 629.364 837.93 622.527C829.382 617.32 825.975 598.636 824.836 590.016C824.046 590.05 823.59 590.065 823.59 590.065C823.59 590.065 825.953 620.161 837.178 626.998C848.402 633.835 904.163 640.737 946.293 640.397C958.454 640.299 962.655 635.973 962.424 629.564C960.735 633.436 956.096 635.854 947.045 635.927Z" fill="black"/>
<circle cx="442.5" cy="308.5" r="26.5" fill="white"/>
<circle cx="545.5" cy="308.5" r="26.5" fill="white"/>
</svg>
