<svg width="114" height="36" viewBox="0 0 114 36" fill="none" xmlns="http://www.w3.org/2000/svg">
<path d="M6.23438 28V5.25H13.2344C15.2344 5.25 17.0208 5.70312 18.5938 6.60938C20.1771 7.50521 21.4115 8.78646 22.2969 10.4531C23.1823 12.1094 23.625 13.9948 23.625 16.1094V17.1562C23.625 19.2708 23.1875 21.151 22.3125 22.7969C21.4479 24.4427 20.224 25.7188 18.6406 26.625C17.0573 27.5312 15.2708 27.9896 13.2812 28H6.23438ZM10.9219 9.04688V24.2344H13.1875C15.0208 24.2344 16.4219 23.6354 17.3906 22.4375C18.3594 21.2396 18.8542 19.526 18.875 17.2969V16.0938C18.875 13.7812 18.3958 12.0312 17.4375 10.8438C16.4792 9.64583 15.0781 9.04688 13.2344 9.04688H10.9219ZM26.0469 19.3906C26.0469 17.7135 26.3698 16.2188 27.0156 14.9062C27.6615 13.5938 28.5885 12.5781 29.7969 11.8594C31.0156 11.1406 32.4271 10.7812 34.0312 10.7812C36.3125 10.7812 38.1719 11.4792 39.6094 12.875C41.0573 14.2708 41.8646 16.1667 42.0312 18.5625L42.0625 19.7188C42.0625 22.3125 41.3385 24.3958 39.8906 25.9688C38.4427 27.5312 36.5 28.3125 34.0625 28.3125C31.625 28.3125 29.6771 27.5312 28.2188 25.9688C26.7708 24.4062 26.0469 22.2812 26.0469 19.5938V19.3906ZM30.5625 19.7188C30.5625 21.3229 30.8646 22.5521 31.4688 23.4062C32.0729 24.25 32.9375 24.6719 34.0625 24.6719C35.1562 24.6719 36.0104 24.2552 36.625 23.4219C37.2396 22.5781 37.5469 21.2344 37.5469 19.3906C37.5469 17.8177 37.2396 16.599 36.625 15.7344C36.0104 14.8698 35.1458 14.4375 34.0312 14.4375C32.9271 14.4375 32.0729 14.8698 31.4688 15.7344C30.8646 16.5885 30.5625 17.9167 30.5625 19.7188ZM51.875 24.6719C52.7083 24.6719 53.3854 24.4427 53.9062 23.9844C54.4271 23.526 54.6979 22.9167 54.7188 22.1562H58.9531C58.9427 23.3021 58.6302 24.3542 58.0156 25.3125C57.401 26.2604 56.5573 27 55.4844 27.5312C54.4219 28.0521 53.2448 28.3125 51.9531 28.3125C49.5365 28.3125 47.6302 27.5469 46.2344 26.0156C44.8385 24.474 44.1406 22.349 44.1406 19.6406V19.3438C44.1406 16.7396 44.8333 14.6615 46.2188 13.1094C47.6042 11.5573 49.5052 10.7812 51.9219 10.7812C54.0365 10.7812 55.7292 11.3854 57 12.5938C58.2812 13.7917 58.9323 15.3906 58.9531 17.3906H54.7188C54.6979 16.5156 54.4271 15.8073 53.9062 15.2656C53.3854 14.7135 52.6979 14.4375 51.8438 14.4375C50.7917 14.4375 49.9948 14.8229 49.4531 15.5938C48.9219 16.3542 48.6562 17.5938 48.6562 19.3125V19.7812C48.6562 21.5208 48.9219 22.7708 49.4531 23.5312C49.9844 24.2917 50.7917 24.6719 51.875 24.6719Z" fill="white"/>
<rect x="64" width="50" height="36" rx="5" fill="#FF9800"/>
<path d="M73.2646 15.2324C74.2005 14.1094 75.3765 13.5479 76.7925 13.5479C79.6571 13.5479 81.1097 15.2121 81.1504 18.5405V27H77.6226V18.6382C77.6226 17.8813 77.4598 17.3239 77.1343 16.9658C76.8088 16.5996 76.2676 16.4165 75.5107 16.4165C74.4772 16.4165 73.7285 16.8153 73.2646 17.6128V27H69.7368V8.25H73.2646V15.2324ZM91.7217 25.6572C90.8509 26.7152 89.6465 27.2441 88.1084 27.2441C86.6924 27.2441 85.61 26.8372 84.8613 26.0234C84.1208 25.2096 83.7424 24.0174 83.7261 22.4468V13.792H87.2539V22.3247C87.2539 23.7 87.8805 24.3877 89.1338 24.3877C90.3301 24.3877 91.152 23.9727 91.5996 23.1426V13.792H95.1396V27H91.8193L91.7217 25.6572ZM109.703 20.5181C109.703 22.634 109.251 24.286 108.348 25.4741C107.444 26.6541 106.183 27.2441 104.563 27.2441C103.131 27.2441 101.988 26.6948 101.133 25.5962L100.975 27H97.8008V8.25H101.329V14.9761C102.142 14.0239 103.213 13.5479 104.539 13.5479C106.15 13.5479 107.412 14.1419 108.323 15.3301C109.243 16.5101 109.703 18.1743 109.703 20.3228V20.5181ZM106.175 20.2617C106.175 18.9271 105.963 17.9546 105.54 17.3442C105.117 16.7257 104.486 16.4165 103.648 16.4165C102.525 16.4165 101.752 16.8763 101.329 17.7959V23.0083C101.76 23.936 102.541 24.3999 103.672 24.3999C104.812 24.3999 105.56 23.8384 105.918 22.7153C106.089 22.1782 106.175 21.3604 106.175 20.2617Z" fill="black"/>
</svg>
